<?xml version="1.0" encoding="utf-8"?>
<!-- Generator: Adobe Illustrator 22.1.0, SVG Export Plug-In . SVG Version: 6.00 Build 0)  -->
<svg version="1.1" id="Layer_1" xmlns="http://www.w3.org/2000/svg" xmlns:xlink="http://www.w3.org/1999/xlink" x="0px" y="0px"
	 viewBox="0 0 288 560" style="enable-background:new 0 0 288 560;" xml:space="preserve">
<style type="text/css">
	.st0{fill:#FFB0D0;}
	.st1{fill:#FEF8A6;}
	.st2{fill:#ED5F91;}
	.st3{fill:#FF82AF;}
	.st4{fill:#DC4B7F;}
	.st5{fill:#0074C2;fill-opacity:0.1;}
	.st6{fill:#ED5A9F;}
	.st7{fill:#FF7AB1;}
	.st8{fill:#FFFFFF;}
</style>
<g>
	<path class="st0" d="M223.7,220c-2.3-4.5-8-8.2-13-8.2h-53.7c-5,0-13,0-18.1,0H85.4c-5,0-10.8,3.6-13,8.2l-23.3,47.8
		c-2.3,4.5-1,10.9,2.4,14.4l90.1,88.7c3.5,3.5,9.4,3.5,12.8,0l90.1-88.7c3.5-3.5,4.7-10.1,2.4-14.4L223.7,220z"/>
	<g>
		<path class="st1" d="M200.7,235.6c-5.6-5.2-11.1-10.6-16.8-15.6c-0.2-0.2-0.5-0.3-0.7-0.7l-90.5,65.5l13.7,19.1L200.7,235.6z"/>
	</g>
	<g>
		<path class="st1" d="M215.9,249.9c-2.1-1.9-4.2-3.8-6.3-5.7l-105.2,76.1l5.2,7.3l106.8-77.1C216.3,250.2,216.1,250,215.9,249.9z"
			/>
	</g>
	<path class="st2" d="M247.5,276.9c0.9-3.1,0.9-6.6-0.5-9.4l-23.3-47.8c-1-2.3-3-4.2-5.4-5.7l-21.2,61.1L247.5,276.9z"/>
	<path class="st2" d="M98.7,275.6l49.3-63.7c-3.3,0-6.6,0-9,0H85.4c-2.6,0-5.6,1-8,2.8L98.7,275.6z"/>
	<path class="st3" d="M218.9,214.6c-2.4-1.7-5.4-2.8-8-2.8h-53.7c-2.4,0-5.7,0-9,0l49.3,63.7L218.9,214.6z"/>
	<path class="st4" d="M77.5,214.4c-2.3,1.4-4.2,3.5-5.2,5.6l-23.3,47.8c-1.2,2.4-1.4,5.4-0.7,8.2l51.1,1.4L77.5,214.4z"/>
	<path class="st5" d="M77.5,214.4c-2.3,1.4-4.2,3.5-5.2,5.6l-23.3,47.8c-1.2,2.4-1.4,5.4-0.7,8.2l51.1,1.4L77.5,214.4z"/>
	<path class="st6" d="M51.5,282.2l90.1,88.7c1.2,1.2,3,2.1,4.5,2.4l-47.4-97.8H48.2C48.7,278,49.8,280.4,51.5,282.2z"/>
	<path class="st4" d="M149.9,373.3c1.7-0.3,3.3-1.2,4.5-2.4l90.1-88.7c1.7-1.7,2.8-4.2,3.3-6.6h-50.5L149.9,373.3z"/>
	<path class="st5" d="M149.9,373.3c1.7-0.3,3.3-1.2,4.5-2.4l90.1-88.7c1.7-1.7,2.8-4.2,3.3-6.6h-50.5L149.9,373.3z"/>
	<path class="st7" d="M98.7,275.6l47.4,97.8c1.2,0.3,2.6,0.3,3.8,0l47.4-97.8H98.7z"/>
	<path class="st8" d="M102,246.9c-8.9,2.8-11.1,5.2-13.9,13.9c-2.8-8.9-5.2-11.1-13.9-13.9c8.9-2.8,11.1-5.2,13.9-13.9
		C91.1,241.7,93.3,243.9,102,246.9z"/>
	<path class="st8" d="M126,226.9c-4.7,1.6-6.1,2.8-7.6,7.6c-1.6-4.7-2.8-6.1-7.6-7.5c4.7-1.6,6.1-2.8,7.6-7.6
		C119.9,224.2,121.1,225.4,126,226.9z"/>
	<path class="st8" d="M129.6,315.1c-4.7,1.6-6.1,2.8-7.6,7.6c-1.6-4.7-2.8-6.1-7.6-7.6c4.7-1.6,6.1-2.8,7.6-7.5
		C123.6,312.4,124.8,313.6,129.6,315.1z"/>
</g>
</svg>
