<?xml version="1.0" encoding="utf-8"?>
<!-- Generator: Adobe Illustrator 22.1.0, SVG Export Plug-In . SVG Version: 6.00 Build 0)  -->
<svg version="1.1" id="Layer_1" xmlns="http://www.w3.org/2000/svg" xmlns:xlink="http://www.w3.org/1999/xlink" x="0px" y="0px"
	 viewBox="0 0 288 560" style="enable-background:new 0 0 288 560;" xml:space="preserve">
<style type="text/css">
	.st0{fill:#BE75FF;}
	.st1{fill:#FEB9EB;}
	.st2{fill:#A061FF;}
	.st3{fill:#9F48FF;}
	.st4{fill:#D783EB;}
	.st5{fill:#8B38D6;}
	.st6{fill:#8536CD;}
	.st7{fill:#FFFFFF;}
</style>
<g>
	<path class="st0" d="M245.9,265.4c2.4,2.4,2.4,6,0,8.4l-93.1,93.1c-2.4,2.4-6,2.4-8.4,0l-93.1-93.1c-2.4-2.4-2.4-6,0-8.4l93.1-93.1
		c2.4-2.4,6-2.4,8.4,0L245.9,265.4z"/>
	<path class="st1" d="M207.1,226.6l-105.3,76.1l-6-8.4l103.9-75.1L207.1,226.6z M189.9,209.5l-19.2-19.2l-88.3,63.8l15.7,21.8
		L189.9,209.5z"/>
	<path class="st2" d="M102.2,324.7l42.2,42.2c2.4,2.4,6,2.4,8.4,0l59.8-59.8l14.1-37.5h-151L102.2,324.7z"/>
	<path class="st3" d="M145.5,171.6c-0.4,0.2-0.7,0.5-1.1,0.9l-93.1,93.1c-1.1,1.1-1.8,2.7-1.8,4.2h64.2L145.5,171.6z"/>
	<path class="st4" d="M183.5,269.6h64.2c0-1.5-0.5-3.1-1.8-4.2l-93.1-93.1c-0.4-0.4-0.7-0.5-1.1-0.9L183.5,269.6z"/>
	<path class="st5" d="M144.4,367.1c0.4,0.4,0.7,0.5,1.1,0.9l-31.8-98.2H49.5c0,1.5,0.5,3.1,1.8,4.2L144.4,367.1z"/>
	<path class="st6" d="M183.5,269.6l-31.8,98.2c0.4-0.2,0.7-0.5,1.1-0.9l93.1-93.1c1.1-1.1,1.8-2.7,1.8-4.2L183.5,269.6L183.5,269.6z
		"/>
	<path class="st7" d="M113.7,218.4c-9.3,2.9-11.7,5.5-14.6,14.6c-2.9-9.1-5.5-11.7-14.6-14.6c9.3-2.9,11.7-5.5,14.6-14.6
		C102.2,212.9,104.5,215.3,113.7,218.4z"/>
	<path class="st7" d="M130.7,240c-4.9,1.6-6.4,2.9-8,8c-1.6-4.9-2.9-6.4-8-8c4.9-1.6,6.4-2.9,8-8C124.5,237.1,125.7,238.4,130.7,240
		z"/>
</g>
</svg>
