<?xml version="1.0" encoding="utf-8"?>
<!-- Generator: Adobe Illustrator 22.1.0, SVG Export Plug-In . SVG Version: 6.00 Build 0)  -->
<svg version="1.1" id="Layer_1" xmlns="http://www.w3.org/2000/svg" xmlns:xlink="http://www.w3.org/1999/xlink" x="0px" y="0px"
	 viewBox="0 0 288 560" style="enable-background:new 0 0 288 560;" xml:space="preserve">
<style type="text/css">
	.st0{fill:#24AE94;}
	.st1{fill:#188989;}
	.st2{fill:#3AC1B0;}
	.st3{fill:#41D9C6;}
	.st4{fill:#60E9CF;}
	.st5{fill:#69FFE3;}
	.st6{fill:#F2FFFD;}
	.st7{fill:#FFFFFF;}
</style>
<g>
	<g>
		<path class="st0" d="M212.6,341.6c3.3-3.3,6-9.9,6-14.6v-93.9c0-4.8-2.7-11.3-6-14.6L182.2,188c-3.3-3.3-9.9-6-14.6-6h-42.5
			c-4.8,0-11.3,2.7-14.6,6l-30.4,30.4c-3.3,3.3-6,9.9-6,14.6v93.9c0,4.8,2.7,11.3,6,14.6l30.4,30.4c3.3,3.3,9.9,6,14.6,6h42.6
			c4.8,0,11.3-2.7,14.6-6L212.6,341.6z"/>
		<path class="st1" d="M106.5,324v-86.6l-30.4-13c-1.3,2.9-2.2,6-2.2,8.6v93.9c0,3.8,1.8,8.8,4.2,12.4L106.5,324z"/>
		<path class="st2" d="M167.8,182h-42.6c-2.4,0-5.3,0.7-8.1,1.8l11.2,27.1l1.6,4.9l32.9-3.3l1.5-1.6l11.2-27.1
			C173.1,182.7,170.1,182,167.8,182z"/>
		<path class="st3" d="M125.1,378h42.6c2.4,0,5.3-0.7,8.1-1.8l-11.2-27.1l-1.5-1.6l-32.9-3.3l-1.6,4.9l-11.2,27.1
			C119.8,377.3,122.7,378,125.1,378z"/>
		<path class="st0" d="M110.5,188.2l-15.2,15.2l-15.2,15.2c-1.6,1.6-3.1,4.2-4.2,6.8l27.1,11.2l4.6,2.4l21-25.8v-2.2l-11.2-27.1
			C114.7,184.9,112.1,186.4,110.5,188.2z"/>
		<path class="st2" d="M103,323.6l-27.1,11.2c1.1,2.6,2.6,5.1,4.2,6.8l15.2,15.2l15.2,15.2c1.6,1.6,4.2,3.1,6.8,4.2l11.2-27.1v-2.2
			l-20.9-25.6L103,323.6z"/>
		<path class="st4" d="M212.8,218.6l-30.4-30.4c-1.6-1.6-4.2-3.1-6.8-4.2l-11.2,27.1v2.2l21,25.8l4.6-2.4l27.1-11.2
			C215.9,222.6,214.4,220.2,212.8,218.6z"/>
		<path class="st1" d="M182.2,372l30.4-30.4c1.6-1.6,3.1-4.2,4.2-6.8l-27.1-11.2l-4.6-2.4l-20.9,25.6v2.2l11.2,27.1
			C178.2,375.3,180.6,373.6,182.2,372z"/>
		<polygon class="st5" points="128.6,349.1 103,323.6 103,236.5 128.6,210.9 164.3,210.9 189.9,236.5 189.9,323.6 164.3,349.1 		"/>
		<g>
			<polygon class="st6" points="189.9,241.1 103,303.9 103,323.6 109.2,329.9 189.9,271.7 			"/>
			<polygon class="st6" points="189.9,299.1 189.9,287.4 118.3,339 125.1,345.8 			"/>
		</g>
	</g>
	<path class="st7" d="M95.8,241.1c-9.3,2.9-11.7,5.5-14.6,14.6c-2.9-9.2-5.5-11.7-14.6-14.6c9.3-2.9,11.7-5.5,14.6-14.6
		C84.1,235.6,86.5,238,95.8,241.1z"/>
	<path class="st7" d="M110.1,216.6c-4.9,1.6-6.4,2.9-7.9,8.1c-1.6-4.9-2.9-6.4-8.1-8.1c4.9-1.6,6.4-2.9,8.1-7.9
		C103.9,213.7,105.2,214.9,110.1,216.6z"/>
	<path class="st7" d="M209.1,328.4c-4.9,1.6-6.4,2.9-8.1,8.1c-1.6-4.9-2.9-6.4-8.1-8.1c4.9-1.6,6.4-2.9,8.1-8.1
		C202.9,325.5,204.2,326.8,209.1,328.4z"/>
</g>
</svg>
