<?xml version="1.0" encoding="utf-8"?>
<!-- Generator: Adobe Illustrator 22.1.0, SVG Export Plug-In . SVG Version: 6.00 Build 0)  -->
<svg version="1.1" id="Layer_1" xmlns="http://www.w3.org/2000/svg" xmlns:xlink="http://www.w3.org/1999/xlink" x="0px" y="0px"
	 viewBox="0 0 288 560" style="enable-background:new 0 0 288 560;" xml:space="preserve">
<style type="text/css">
	.st0{fill:#FFC551;}
	.st1{opacity:0.5;fill:#ED861F;enable-background:new    ;}
	.st2{opacity:0.5;fill:#C62100;enable-background:new    ;}
	.st3{fill:#FCE221;}
	.st4{fill:#FFFFFF;}
</style>
<g>
	<path class="st0" d="M53.7,355.9c-4.9,0-6.7-3.4-4.4-7.6l95-164.5c2.4-4.2,6.4-4.2,8.7,0l95,164.5c2.4,4.2,0.5,7.6-4.4,7.6H53.7z"
		/>
	<path class="st1" d="M148.7,259.4v-78.7c-1.5,0-3.2,1-4.4,3.2l-47.4,82.2l-47.4,82.2c-1.2,2-1.3,4-0.5,5.4l50.6-29.3L148.7,259.4z"
		/>
	<path class="st2" d="M197.8,324.3l-80.9-10.1l-68.1,39.3c0.8,1.3,2.5,2.2,4.9,2.2h190c2.4,0,4-0.8,4.9-2.2L197.8,324.3z"/>
	<polygon class="st3" points="99.5,324.3 148.7,239.2 197.8,324.3 	"/>
	<g>
		<polygon class="st4" points="177,288.3 165.5,268.4 107.5,310.5 99.5,324.3 127.2,324.3 		"/>
		<polygon class="st4" points="187.4,306.1 182.9,298.5 147.2,324.3 162.2,324.3 		"/>
	</g>
	<path class="st4" d="M103.5,272.5c-7.9,2.5-9.9,4.5-12.4,12.4c-2.5-7.9-4.5-9.9-12.4-12.4c7.9-2.5,9.9-4.5,12.4-12.4
		C93.6,267.9,95.6,270,103.5,272.5z"/>
	<path class="st4" d="M113.1,294.5c-4.2,1.3-5.4,2.5-6.7,6.7c-1.3-4.2-2.5-5.4-6.7-6.7c4.2-1.3,5.4-2.5,6.7-6.7
		C107.7,292,108.7,293,113.1,294.5z"/>
	<path class="st4" d="M138.3,338.9c-4.2,1.3-5.4,2.5-6.7,6.7c-1.3-4.2-2.5-5.4-6.7-6.7c4.2-1.3,5.4-2.5,6.7-6.7
		C132.9,336.4,134.1,337.6,138.3,338.9z"/>
</g>
</svg>
